<svg xmlns="http://www.w3.org/2000/svg" viewBox="0 0 236.79 158.52"><title>&#x8D44;&#x6E90; 84</title><path d="M157.49 133.56l1 .65c-.7.38-.93-.01-1-.65z" fill="#37b0fe"/><path d="M104.89 157.77c6.5-11.32 12-20.87 17.47-30.4 17.32-29.93 34.23-60.12 52.24-89.63 6.4-10.47 7.4-19.23-.21-28.86-1.43-1.81-2.26-4.1-3.28-6 .45-.76.72-1.59 1-1.59 16.3 0 32.81-1.44 48.85.67 13.86 1.82 19.86 19 13 32.36-4.23 8.21-9.06 16.11-13.69 24.1-17.59 30.39-35.38 60.67-52.66 91.23-3.76 6.65-8.14 9.21-15.74 8.84-12.4-.61-24.85-.14-37.29-.18-2.58-.01-5.15-.31-9.69-.54zM83.31 145.44c-9.2-15.91-18-30.84-26.36-46.06-1-1.88.08-5.7 1.36-8q22.57-39.53 45.6-78.81c6.48-11 18.9-15.09 31.82-11.12a22.44 22.44 0 0 1 15.74 23.77 24.87 24.87 0 0 1-3.05 9.78Q117.67 88.51 86.6 141.88c-.5.87-1.38 1.52-3.29 3.56z" fill="#143d8f"/><path d="M41.37 73.07L0 1.64C3 1.05 4.71.45 6.41.44 18.57.36 30.74.09 42.88.47 62.07 1.08 72.19 18.09 63.26 35c-6.51 12.26-13.83 24.12-21.89 38.07z" fill="#147dc8"/></svg>